CATALOG 0000000000000
FILE "Super Street Fighter II Turbo (1995)(Gametek)(Track 01 of 46)[!].iso" BINARY
  TRACK 01 MODE1/2048
    INDEX 01 00:00:00
FILE "Super Street Fighter II Turbo (1995)(Gametek)(Track 02 of 46)[!].wav" WAVE
  TRACK 02 AUDIO
    PREGAP 00:02:00
    INDEX 01 00:00:00
FILE "Super Street Fighter II Turbo (1995)(Gametek)(Track 03 of 46)[!].wav" WAVE
  TRACK 03 AUDIO
    INDEX 00 00:00:00
    INDEX 01 00:02:00
FILE "Super Street Fighter II Turbo (1995)(Gametek)(Track 04 of 46)[!].wav" WAVE
  TRACK 04 AUDIO
    INDEX 00 00:00:00
    INDEX 01 00:02:00
FILE "Super Street Fighter II Turbo (1995)(Gametek)(Track 05 of 46)[!].wav" WAVE
  TRACK 05 AUDIO
    INDEX 00 00:00:00
    INDEX 01 00:02:00
FILE "Super Street Fighter II Turbo (1995)(Gametek)(Track 06 of 46)[!].wav" WAVE
  TRACK 06 AUDIO
    INDEX 00 00:00:00
    INDEX 01 00:02:00
FILE "Super Street Fighter II Turbo (1995)(Gametek)(Track 07 of 46)[!].wav" WAVE
  TRACK 07 AUDIO
    INDEX 00 00:00:00
    INDEX 01 00:02:00
FILE "Super Street Fighter II Turbo (1995)(Gametek)(Track 08 of 46)[!].wav" WAVE
  TRACK 08 AUDIO
    INDEX 00 00:00:00
    INDEX 01 00:02:00
FILE "Super Street Fighter II Turbo (1995)(Gametek)(Track 09 of 46)[!].wav" WAVE
  TRACK 09 AUDIO
    INDEX 00 00:00:00
    INDEX 01 00:02:00
FILE "Super Street Fighter II Turbo (1995)(Gametek)(Track 10 of 46)[!].wav" WAVE
  TRACK 10 AUDIO
    INDEX 00 00:00:00
    INDEX 01 00:02:00
FILE "Super Street Fighter II Turbo (1995)(Gametek)(Track 11 of 46)[!].wav" WAVE
  TRACK 11 AUDIO
    INDEX 00 00:00:00
    INDEX 01 00:02:00
FILE "Super Street Fighter II Turbo (1995)(Gametek)(Track 12 of 46)[!].wav" WAVE
  TRACK 12 AUDIO
    INDEX 00 00:00:00
    INDEX 01 00:02:00
FILE "Super Street Fighter II Turbo (1995)(Gametek)(Track 13 of 46)[!].wav" WAVE
  TRACK 13 AUDIO
    INDEX 00 00:00:00
    INDEX 01 00:02:00
FILE "Super Street Fighter II Turbo (1995)(Gametek)(Track 14 of 46)[!].wav" WAVE
  TRACK 14 AUDIO
    INDEX 00 00:00:00
    INDEX 01 00:02:00
FILE "Super Street Fighter II Turbo (1995)(Gametek)(Track 15 of 46)[!].wav" WAVE
  TRACK 15 AUDIO
    INDEX 00 00:00:00
    INDEX 01 00:02:00
FILE "Super Street Fighter II Turbo (1995)(Gametek)(Track 16 of 46)[!].wav" WAVE
  TRACK 16 AUDIO
    INDEX 00 00:00:00
    INDEX 01 00:02:00
FILE "Super Street Fighter II Turbo (1995)(Gametek)(Track 17 of 46)[!].wav" WAVE
  TRACK 17 AUDIO
    INDEX 00 00:00:00
    INDEX 01 00:02:00
FILE "Super Street Fighter II Turbo (1995)(Gametek)(Track 18 of 46)[!].wav" WAVE
  TRACK 18 AUDIO
    INDEX 00 00:00:00
    INDEX 01 00:02:00
FILE "Super Street Fighter II Turbo (1995)(Gametek)(Track 19 of 46)[!].wav" WAVE
  TRACK 19 AUDIO
    INDEX 00 00:00:00
    INDEX 01 00:02:00
FILE "Super Street Fighter II Turbo (1995)(Gametek)(Track 20 of 46)[!].wav" WAVE
  TRACK 20 AUDIO
    INDEX 00 00:00:00
    INDEX 01 00:02:00
FILE "Super Street Fighter II Turbo (1995)(Gametek)(Track 21 of 46)[!].wav" WAVE
  TRACK 21 AUDIO
    INDEX 00 00:00:00
    INDEX 01 00:02:00
FILE "Super Street Fighter II Turbo (1995)(Gametek)(Track 22 of 46)[!].wav" WAVE
  TRACK 22 AUDIO
    INDEX 00 00:00:00
    INDEX 01 00:02:00
FILE "Super Street Fighter II Turbo (1995)(Gametek)(Track 23 of 46)[!].wav" WAVE
  TRACK 23 AUDIO
    INDEX 00 00:00:00
    INDEX 01 00:02:00
FILE "Super Street Fighter II Turbo (1995)(Gametek)(Track 24 of 46)[!].wav" WAVE
  TRACK 24 AUDIO
    INDEX 00 00:00:00
    INDEX 01 00:02:00
FILE "Super Street Fighter II Turbo (1995)(Gametek)(Track 25 of 46)[!].wav" WAVE
  TRACK 25 AUDIO
    INDEX 00 00:00:00
    INDEX 01 00:02:00
FILE "Super Street Fighter II Turbo (1995)(Gametek)(Track 26 of 46)[!].wav" WAVE
  TRACK 26 AUDIO
    INDEX 00 00:00:00
    INDEX 01 00:02:00
FILE "Super Street Fighter II Turbo (1995)(Gametek)(Track 27 of 46)[!].wav" WAVE
  TRACK 27 AUDIO
    INDEX 00 00:00:00
    INDEX 01 00:02:00
FILE "Super Street Fighter II Turbo (1995)(Gametek)(Track 28 of 46)[!].wav" WAVE
  TRACK 28 AUDIO
    INDEX 00 00:00:00
    INDEX 01 00:02:00
FILE "Super Street Fighter II Turbo (1995)(Gametek)(Track 29 of 46)[!].wav" WAVE
  TRACK 29 AUDIO
    INDEX 00 00:00:00
    INDEX 01 00:02:00
FILE "Super Street Fighter II Turbo (1995)(Gametek)(Track 30 of 46)[!].wav" WAVE
  TRACK 30 AUDIO
    INDEX 00 00:00:00
    INDEX 01 00:02:00
FILE "Super Street Fighter II Turbo (1995)(Gametek)(Track 31 of 46)[!].wav" WAVE
  TRACK 31 AUDIO
    INDEX 00 00:00:00
    INDEX 01 00:02:00
FILE "Super Street Fighter II Turbo (1995)(Gametek)(Track 32 of 46)[!].wav" WAVE
  TRACK 32 AUDIO
    INDEX 00 00:00:00
    INDEX 01 00:02:00
FILE "Super Street Fighter II Turbo (1995)(Gametek)(Track 33 of 46)[!].wav" WAVE
  TRACK 33 AUDIO
    INDEX 00 00:00:00
    INDEX 01 00:02:00
FILE "Super Street Fighter II Turbo (1995)(Gametek)(Track 34 of 46)[!].wav" WAVE
  TRACK 34 AUDIO
    INDEX 00 00:00:00
    INDEX 01 00:02:00
FILE "Super Street Fighter II Turbo (1995)(Gametek)(Track 35 of 46)[!].wav" WAVE
  TRACK 35 AUDIO
    INDEX 00 00:00:00
    INDEX 01 00:02:00
FILE "Super Street Fighter II Turbo (1995)(Gametek)(Track 36 of 46)[!].wav" WAVE
  TRACK 36 AUDIO
    INDEX 00 00:00:00
    INDEX 01 00:02:00
FILE "Super Street Fighter II Turbo (1995)(Gametek)(Track 37 of 46)[!].wav" WAVE
  TRACK 37 AUDIO
    INDEX 00 00:00:00
    INDEX 01 00:02:00
FILE "Super Street Fighter II Turbo (1995)(Gametek)(Track 38 of 46)[!].wav" WAVE
  TRACK 38 AUDIO
    INDEX 00 00:00:00
    INDEX 01 00:02:00
FILE "Super Street Fighter II Turbo (1995)(Gametek)(Track 39 of 46)[!].wav" WAVE
  TRACK 39 AUDIO
    INDEX 00 00:00:00
    INDEX 01 00:02:00
FILE "Super Street Fighter II Turbo (1995)(Gametek)(Track 40 of 46)[!].wav" WAVE
  TRACK 40 AUDIO
    INDEX 00 00:00:00
    INDEX 01 00:02:00
FILE "Super Street Fighter II Turbo (1995)(Gametek)(Track 41 of 46)[!].wav" WAVE
  TRACK 41 AUDIO
    INDEX 00 00:00:00
    INDEX 01 00:02:01
FILE "Super Street Fighter II Turbo (1995)(Gametek)(Track 42 of 46)[!].wav" WAVE
  TRACK 42 AUDIO
    INDEX 00 00:00:00
    INDEX 01 00:02:00
FILE "Super Street Fighter II Turbo (1995)(Gametek)(Track 43 of 46)[!].wav" WAVE
  TRACK 43 AUDIO
    INDEX 00 00:00:00
    INDEX 01 00:02:00
FILE "Super Street Fighter II Turbo (1995)(Gametek)(Track 44 of 46)[!].wav" WAVE
  TRACK 44 AUDIO
    INDEX 00 00:00:00
    INDEX 01 00:02:00
FILE "Super Street Fighter II Turbo (1995)(Gametek)(Track 45 of 46)[!].wav" WAVE
  TRACK 45 AUDIO
    INDEX 00 00:00:00
    INDEX 01 00:02:00
FILE "Super Street Fighter II Turbo (1995)(Gametek)(Track 46 of 46)[!].wav" WAVE
  TRACK 46 AUDIO
    INDEX 00 00:00:00
    INDEX 01 00:02:00
